<?xml version="1.0" encoding="UTF-8" standalone="no"?>
<!-- Created with Inkscape (http://www.inkscape.org/) -->

<svg
   xmlns:dc="http://purl.org/dc/elements/1.1/"
   xmlns:cc="http://creativecommons.org/ns#"
   xmlns:rdf="http://www.w3.org/1999/02/22-rdf-syntax-ns#"
   xmlns:svg="http://www.w3.org/2000/svg"
   xmlns="http://www.w3.org/2000/svg"
   xmlns:sodipodi="http://sodipodi.sourceforge.net/DTD/sodipodi-0.dtd"
   xmlns:inkscape="http://www.inkscape.org/namespaces/inkscape"
   id="svg2985"
   version="1.1"
   inkscape:version="0.48.5 r10040"
   width="249.99669"
   height="36.461258"
   xml:space="preserve"
   sodipodi:docname="MPCCodeGen.svg"><metadata
     id="metadata2991"><rdf:RDF><cc:Work
         rdf:about=""><dc:format>image/svg+xml</dc:format><dc:type
           rdf:resource="http://purl.org/dc/dcmitype/StillImage" /><dc:title></dc:title></cc:Work></rdf:RDF></metadata><defs
     id="defs2989" /><sodipodi:namedview
     pagecolor="#ffffff"
     bordercolor="#666666"
     borderopacity="1"
     objecttolerance="10"
     gridtolerance="10"
     guidetolerance="10"
     inkscape:pageopacity="0"
     inkscape:pageshadow="2"
     inkscape:window-width="1464"
     inkscape:window-height="812"
     id="namedview2987"
     showgrid="false"
     fit-margin-top="0"
     fit-margin-left="0"
     fit-margin-right="0"
     fit-margin-bottom="0"
     inkscape:zoom="1.4963837"
     inkscape:cx="238.90964"
     inkscape:cy="34.844079"
     inkscape:window-x="175"
     inkscape:window-y="57"
     inkscape:window-maximized="0"
     inkscape:current-layer="g2993" /><g
     id="g2993"
     inkscape:groupmode="layer"
     inkscape:label="MPCCodeGen"
     transform="matrix(1.25,0,0,-1.25,3.1915389e-4,36.458254)"><g
       id="g2995"
       transform="matrix(0.52321085,0,0,0.52321085,-2.5532311e-4,-1.6268422e-4)"><g
         id="g2997"
         transform="matrix(1,0,0,-1,0,55.74572)"><path
           d="m 9.805,0.457 95.218,0 c 5.18,0 9.348,3.961 9.348,8.879 l 0,37.074 c 0,4.918 -4.168,8.879 -9.348,8.879 l -95.218,0 c -5.18,0 -9.348,-3.961 -9.348,-8.879 l 0,-37.074 c 0,-4.918 4.168,-8.879 9.348,-8.879 z"
           style="fill:#ffffff;fill-opacity:1;fill-rule:nonzero;stroke:#000000;stroke-width:0.91507101;stroke-linecap:butt;stroke-linejoin:miter;stroke-miterlimit:4;stroke-opacity:1;stroke-dasharray:none"
           id="path2999"
           inkscape:connector-curvature="0" /></g><text
         transform="matrix(1,0,0,-1,23.015183,34.586306)"
         id="text3001"><tspan
           style="font-size:16px;font-variant:normal;font-weight:normal;writing-mode:lr-tb;fill:#000000;fill-opacity:1;fill-rule:nonzero;stroke:none;font-family:Arial;-inkscape-font-specification:ArialMT"
           x="0 11.552 20.448 29.344 32.896 36.448002 45.391998 54.287998 63.183998"
           y="0"
           sodipodi:role="line"
           id="tspan3003">Nonlinear</tspan><tspan
           style="font-size:16px;font-variant:normal;font-weight:normal;writing-mode:lr-tb;fill:#000000;fill-opacity:1;fill-rule:nonzero;stroke:none;font-family:Arial;-inkscape-font-specification:ArialMT"
           x="-16.437504 -5.7815042 2.2184961 10.218496 14.650496 23.546495 36.874496 41.306496 54.634495 63.578495 72.474495 81.370499"
           y="20"
           sodipodi:role="line"
           id="tspan3005">System Model</tspan></text>
<g
         id="g3007"
         transform="matrix(1,0,0,-1,0,55.74572)"><path
           d="m 277.23,0.457 95.219,0 c 5.18,0 9.348,3.961 9.348,8.879 l 0,37.074 c 0,4.918 -4.168,8.879 -9.348,8.879 l -95.219,0 c -5.179,0 -9.347,-3.961 -9.347,-8.879 l 0,-37.074 c 0,-4.918 4.168,-8.879 9.347,-8.879 z"
           style="fill:#ffffff;fill-opacity:1;fill-rule:nonzero;stroke:#000000;stroke-width:0.91507101;stroke-linecap:butt;stroke-linejoin:miter;stroke-miterlimit:4;stroke-opacity:1;stroke-dasharray:none"
           id="path3009"
           inkscape:connector-curvature="0" /></g><text
         transform="matrix(1,0,0,-1,269.98723,31.386306)"
         id="text3011"><tspan
           style="font-size:16px;font-variant:normal;font-weight:normal;writing-mode:lr-tb;fill:#000000;fill-opacity:1;fill-rule:nonzero;stroke:none;font-family:Arial;-inkscape-font-specification:ArialMT"
           x="0 13.328 23.983999 35.535999 39.967999 51.52 60.464001 69.360001 73.792 79.120003 88.015999 91.568001 95.120003 104.064"
           y="0"
           sodipodi:role="line"
           id="tspan3013">MPC Controller</tspan><tspan
           style="font-size:16px;font-variant:normal;font-weight:normal;writing-mode:lr-tb;fill:#000000;fill-opacity:1;fill-rule:nonzero;stroke:none;font-family:Arial;-inkscape-font-specification:ArialMT"
           x="35.593742 47.145744 56.041744 64.937744"
           y="20"
           sodipodi:role="line"
           id="tspan3015">Code</tspan></text>
<g
         id="g3017"
         transform="matrix(1,0,0,-1,0,55.74572)"><path
           d="m 114.371,27.871 153.512,0"
           style="fill:none;stroke:#000000;stroke-width:0.80000001;stroke-linecap:butt;stroke-linejoin:miter;stroke-miterlimit:4;stroke-opacity:1;stroke-dasharray:none"
           id="path3019"
           inkscape:connector-curvature="0" /></g><g
         id="g3021"
         transform="matrix(-1,0,0,1,0,55.74572)"><path
           d="m -259.883,-27.871 3.199,-3.203 -11.199,3.203 11.199,3.199 -3.199,-3.199 z"
           style="fill:#000000;fill-opacity:1;fill-rule:evenodd;stroke:#000000;stroke-width:0.80000001;stroke-linecap:butt;stroke-linejoin:miter;stroke-miterlimit:4;stroke-opacity:1;stroke-dasharray:none"
           id="path3023"
           inkscape:connector-curvature="0" /></g><text
         transform="matrix(1,0,0,-1,151.6822,31.945974)"
         id="text3025"><tspan
           style="font-size:16px;font-variant:normal;font-weight:normal;writing-mode:lr-tb;fill:#000000;fill-opacity:1;fill-rule:nonzero;stroke:none;font-family:Arial;-inkscape-font-specification:ArialMT"
           x="0 10.656 19.552 23.983999 32.880001 46.208 55.152 59.584 63.136002"
           y="0"
           sodipodi:role="line"
           id="tspan3027">Automatic</tspan><tspan
           style="font-size:16px;font-variant:normal;font-weight:normal;writing-mode:lr-tb;fill:#000000;fill-opacity:1;fill-rule:nonzero;stroke:none;font-family:Arial;-inkscape-font-specification:ArialMT"
           x="-25.375008 -13.823008 -4.9270082 3.968992 12.864992 17.296991 29.728992 38.624992 47.520992 56.416992 61.792992 70.688995 75.120995 78.672989 87.568993"
           y="20"
           sodipodi:role="line"
           id="tspan3029">Code Generation</tspan></text>
</g></g></svg>